<mxfile host="app.diagrams.net" modified="2021-12-30T23:31:29.945Z" agent="5.0 (Windows NT 10.0; Win64; x64) AppleWebKit/537.36 (KHTML, like Gecko) Chrome/96.0.4664.110 Safari/537.36" etag="ODB_yK4VSC2W0y2XFD6t" version="16.1.2" type="github">
  <diagram name="Page-1" id="c37626ed-c26b-45fb-9056-f9ebc6bb27b6">
    <mxGraphModel dx="1773" dy="1112" grid="1" gridSize="10" guides="1" tooltips="1" connect="1" arrows="1" fold="1" page="1" pageScale="1" pageWidth="1100" pageHeight="850" background="none" math="0" shadow="0">
      <root>
        <mxCell id="0" />
        <mxCell id="1" parent="0" />
        <mxCell id="1c7a67bf8fd3230f-83" value="NAPM" style="whiteSpace=wrap;html=1;rounded=0;shadow=0;comic=0;strokeWidth=1;fontFamily=Verdana;fontSize=14;fillColor=#f5f5f5;strokeColor=none;verticalAlign=top;fontStyle=1" parent="1" vertex="1">
          <mxGeometry x="80" y="550" width="752" height="610" as="geometry" />
        </mxCell>
        <mxCell id="1c7a67bf8fd3230f-81" value="Core" style="whiteSpace=wrap;html=1;rounded=0;shadow=0;comic=0;strokeWidth=1;fontFamily=Verdana;fontSize=14;fillColor=#f5f5f5;strokeColor=none;fontStyle=1;verticalAlign=top;" parent="1" vertex="1">
          <mxGeometry x="570" y="70" width="710" height="370" as="geometry" />
        </mxCell>
        <mxCell id="1c7a67bf8fd3230f-80" value="NOCB" style="whiteSpace=wrap;html=1;rounded=0;shadow=0;comic=0;strokeWidth=1;fontFamily=Verdana;fontSize=14;fillColor=#f5f5f5;strokeColor=none;fontStyle=1;verticalAlign=top;" parent="1" vertex="1">
          <mxGeometry x="960" y="550" width="703" height="610" as="geometry" />
        </mxCell>
        <mxCell id="1c7a67bf8fd3230f-38" style="edgeStyle=none;html=1;labelBackgroundColor=none;startFill=0;endArrow=none;endFill=0;strokeWidth=2;fontFamily=Verdana;fontSize=12;" parent="1" target="1c7a67bf8fd3230f-5" edge="1">
          <mxGeometry relative="1" as="geometry">
            <mxPoint x="968.3294117647056" y="391.9999999999998" as="sourcePoint" />
          </mxGeometry>
        </mxCell>
        <mxCell id="1c7a67bf8fd3230f-39" style="edgeStyle=none;html=1;labelBackgroundColor=none;startFill=0;endArrow=none;endFill=0;strokeWidth=2;fontFamily=Verdana;fontSize=12;" parent="1" target="1c7a67bf8fd3230f-5" edge="1">
          <mxGeometry relative="1" as="geometry">
            <mxPoint x="1119.2352941176468" y="391.9999999999998" as="sourcePoint" />
          </mxGeometry>
        </mxCell>
        <mxCell id="1c7a67bf8fd3230f-40" style="edgeStyle=none;html=1;labelBackgroundColor=none;startFill=0;endArrow=none;endFill=0;strokeWidth=2;fontFamily=Verdana;fontSize=12;" parent="1" target="1c7a67bf8fd3230f-5" edge="1">
          <mxGeometry relative="1" as="geometry">
            <mxPoint x="1339.9999999999995" y="366" as="sourcePoint" />
          </mxGeometry>
        </mxCell>
        <mxCell id="1c7a67bf8fd3230f-41" style="edgeStyle=none;html=1;labelBackgroundColor=none;startFill=0;endArrow=none;endFill=0;strokeWidth=2;fontFamily=Verdana;fontSize=12;" parent="1" source="1c7a67bf8fd3230f-5" edge="1">
          <mxGeometry relative="1" as="geometry">
            <mxPoint x="1239.9999999999995" y="519" as="targetPoint" />
          </mxGeometry>
        </mxCell>
        <mxCell id="1c7a67bf8fd3230f-49" style="edgeStyle=none;html=1;labelBackgroundColor=none;startFill=0;endArrow=none;endFill=0;strokeWidth=2;fontFamily=Verdana;fontSize=12;" parent="1" target="1c7a67bf8fd3230f-46" edge="1">
          <mxGeometry relative="1" as="geometry">
            <mxPoint x="1019.9999999999995" y="551.1203007518798" as="sourcePoint" />
          </mxGeometry>
        </mxCell>
        <mxCell id="1c7a67bf8fd3230f-50" style="edgeStyle=none;html=1;labelBackgroundColor=none;startFill=0;endArrow=none;endFill=0;strokeWidth=2;fontFamily=Verdana;fontSize=12;" parent="1" target="1c7a67bf8fd3230f-47" edge="1">
          <mxGeometry relative="1" as="geometry">
            <mxPoint x="1084" y="553.365217391304" as="sourcePoint" />
          </mxGeometry>
        </mxCell>
        <mxCell id="1c7a67bf8fd3230f-42" style="edgeStyle=none;html=1;labelBackgroundColor=none;startFill=0;endArrow=none;endFill=0;strokeWidth=2;fontFamily=Verdana;fontSize=12;" parent="1" target="1c7a67bf8fd3230f-10" edge="1">
          <mxGeometry relative="1" as="geometry">
            <mxPoint x="1304" y="519" as="sourcePoint" />
          </mxGeometry>
        </mxCell>
        <mxCell id="1c7a67bf8fd3230f-43" style="edgeStyle=none;html=1;labelBackgroundColor=none;startFill=0;endArrow=none;endFill=0;strokeWidth=2;fontFamily=Verdana;fontSize=12;" parent="1" target="1c7a67bf8fd3230f-11" edge="1">
          <mxGeometry relative="1" as="geometry">
            <mxPoint x="1412" y="506.1264367816091" as="sourcePoint" />
          </mxGeometry>
        </mxCell>
        <mxCell id="1c7a67bf8fd3230f-44" style="edgeStyle=none;html=1;labelBackgroundColor=none;startFill=0;endArrow=none;endFill=0;strokeWidth=2;fontFamily=Verdana;fontSize=12;" parent="1" target="1c7a67bf8fd3230f-12" edge="1">
          <mxGeometry relative="1" as="geometry">
            <mxPoint x="1412" y="525.231884057971" as="sourcePoint" />
          </mxGeometry>
        </mxCell>
        <mxCell id="1c7a67bf8fd3230f-51" style="edgeStyle=none;html=1;labelBackgroundColor=none;startFill=0;endArrow=none;endFill=0;strokeWidth=2;fontFamily=Verdana;fontSize=12;" parent="1" target="1c7a67bf8fd3230f-48" edge="1">
          <mxGeometry relative="1" as="geometry">
            <mxPoint x="1407.391304347826" y="551.9999999999998" as="sourcePoint" />
          </mxGeometry>
        </mxCell>
        <mxCell id="4torE-JFeFEt0INfoeiA-6" value="Route&lt;div&gt;Switch&lt;/div&gt;&lt;div&gt;Processor&lt;/div&gt;" style="shape=mxgraph.cisco.misc.route_switch_processor;html=1;dashed=0;fillColor=#036897;strokeColor=#ffffff;strokeWidth=2;verticalLabelPosition=bottom;verticalAlign=top;rounded=0;shadow=0;comic=0;fontFamily=Verdana;fontSize=12;" vertex="1" parent="1">
          <mxGeometry x="440" y="630" width="64" height="86" as="geometry" />
        </mxCell>
        <mxCell id="4torE-JFeFEt0INfoeiA-20" value="" style="shape=mxgraph.cisco.routers.router;sketch=0;html=1;pointerEvents=1;dashed=0;fillColor=#036897;strokeColor=#ffffff;strokeWidth=4;verticalLabelPosition=bottom;verticalAlign=top;align=center;outlineConnect=0;" vertex="1" parent="1">
          <mxGeometry x="710" y="220" width="78" height="53" as="geometry" />
        </mxCell>
        <mxCell id="4torE-JFeFEt0INfoeiA-34" style="rounded=0;orthogonalLoop=1;jettySize=auto;html=1;exitX=0;exitY=0.5;exitDx=0;exitDy=0;exitPerimeter=0;strokeColor=default;strokeWidth=4;" edge="1" parent="1" source="4torE-JFeFEt0INfoeiA-21" target="4torE-JFeFEt0INfoeiA-20">
          <mxGeometry relative="1" as="geometry" />
        </mxCell>
        <mxCell id="4torE-JFeFEt0INfoeiA-21" value="" style="shape=mxgraph.cisco.routers.router;sketch=0;html=1;pointerEvents=1;dashed=0;fillColor=#036897;strokeColor=#ffffff;strokeWidth=2;verticalLabelPosition=bottom;verticalAlign=top;align=center;outlineConnect=0;" vertex="1" parent="1">
          <mxGeometry x="1060" y="220" width="78" height="53" as="geometry" />
        </mxCell>
      </root>
    </mxGraphModel>
  </diagram>
</mxfile>
